<?xml version="1.0" encoding="UTF-8" standalone="no"?>
<svg
   xmlns:dc="http://purl.org/dc/elements/1.1/"
   xmlns:cc="http://creativecommons.org/ns#"
   xmlns:rdf="http://www.w3.org/1999/02/22-rdf-syntax-ns#"
   xmlns:svg="http://www.w3.org/2000/svg"
   xmlns="http://www.w3.org/2000/svg"
   xmlns:sodipodi="http://sodipodi.sourceforge.net/DTD/sodipodi-0.dtd"
   xmlns:inkscape="http://www.inkscape.org/namespaces/inkscape"
   viewBox="0 0 254.66666 298.66666"
   height="298.66666"
   width="254.66666"
   xml:space="preserve"
   id="svg2"
   version="1.1"
   sodipodi:docname="Final.svg"
   inkscape:version="0.92.3 (2405546, 2018-03-11)"><sodipodi:namedview
     pagecolor="#ffffff"
     bordercolor="#666666"
     borderopacity="1"
     objecttolerance="10"
     gridtolerance="10"
     guidetolerance="10"
     inkscape:pageopacity="0"
     inkscape:pageshadow="2"
     inkscape:window-width="3440"
     inkscape:window-height="1412"
     id="namedview47"
     showgrid="false"
     inkscape:measure-start="0,0"
     inkscape:measure-end="0,0"
     fit-margin-top="0"
     fit-margin-left="0"
     fit-margin-right="0"
     fit-margin-bottom="0"
     inkscape:zoom="3.3210433"
     inkscape:cx="127.33333"
     inkscape:cy="149.33334"
     inkscape:window-x="0"
     inkscape:window-y="0"
     inkscape:window-maximized="1"
     inkscape:current-layer="svg2" /><metadata
     id="metadata8"><rdf:RDF><cc:Work
         rdf:about=""><dc:format>image/svg+xml</dc:format><dc:type
           rdf:resource="http://purl.org/dc/dcmitype/StillImage" /><dc:title></dc:title></cc:Work></rdf:RDF></metadata><defs
     id="defs6"><clipPath
       clipPathUnits="userSpaceOnUse"
       id="clipPath51"><rect
         id="rect53"
         width="191"
         height="224"
         x="36"
         y="-251"
         style="stroke-width:0.75"
         transform="scale(1,-1)" /></clipPath></defs><g
     transform="matrix(1.3333333,0,0,-1.3333333,-47.999999,334.66666)"
     id="g10"
     clip-path="url(#clipPath51)"><g
       transform="scale(0.1)"
       id="g12"><path
         id="path14"
         style="fill:#a81c22;fill-opacity:1;fill-rule:nonzero;stroke:none"
         d="m 2059.74,500.141 c -9.3,0 -17.23,3.41 -23.83,10.269 -6.61,6.852 -10.65,15.16 -12.11,24.942 V 682.75 c 0.49,23.969 5.5,46.211 15.04,66.738 9.53,20.543 22.36,38.512 38.49,53.91 16.15,15.403 34.84,27.622 56.11,36.672 21.27,9.039 43.88,14.051 67.85,15.039 9.28,-0.5 17.34,-4.398 24.2,-11.73 6.83,-7.34 10.99,-15.41 12.47,-24.207 -0.99,-9.301 -4.9,-17.481 -11.75,-24.57 -6.84,-7.09 -15.15,-10.883 -24.92,-11.372 -14.2,0 -27.64,-2.679 -40.34,-8.05 -12.73,-5.391 -23.84,-12.848 -33.38,-22.391 -9.53,-9.527 -17.11,-20.648 -22.73,-33.367 -5.62,-12.703 -8.43,-26.652 -8.43,-41.793 V 531.68 c -1.47,-8.309 -5.51,-15.649 -12.1,-22 -6.6,-6.371 -14.8,-9.539 -24.57,-9.539"
         inkscape:connector-curvature="0" /><path
         id="path16"
         style="fill:#a81c22;fill-opacity:1;fill-rule:nonzero;stroke:none"
         d="m 573.395,719.422 c 12.214,0 23.578,2.207 34.101,6.609 10.508,4.41 19.805,10.641 27.871,18.707 8.063,8.051 14.414,17.34 19.067,27.871 4.644,10.5 6.961,22.11 6.961,34.832 0,12.219 -2.317,23.579 -6.961,34.098 -4.653,10.512 -11.004,19.672 -19.067,27.492 -8.066,7.828 -17.363,14.071 -27.871,18.707 -10.523,4.653 -21.887,6.981 -34.101,6.981 -12.227,0 -23.594,-2.328 -34.102,-6.981 -10.523,-4.636 -19.688,-10.879 -27.508,-18.707 -7.824,-7.82 -14.058,-16.98 -18.703,-27.492 -4.652,-10.519 -6.965,-21.879 -6.965,-34.098 0,-12.722 2.313,-24.332 6.965,-34.832 4.645,-10.531 10.879,-19.82 18.703,-27.871 7.82,-8.066 16.985,-14.297 27.508,-18.707 10.508,-4.402 21.875,-6.609 34.102,-6.609 z m 0,250.098 c 21.015,0 41.308,-4.168 60.867,-12.469 19.551,-8.321 36.789,-19.789 51.707,-34.461 14.91,-14.668 26.773,-31.918 35.562,-51.711 8.813,-19.82 13.203,-40.957 13.203,-63.438 0,-22.5 -4.164,-43.632 -12.468,-63.453 -8.317,-19.789 -19.676,-37.039 -34.102,-51.699 -14.426,-14.66 -31.422,-26.277 -50.969,-34.828 -19.562,-8.563 -40.824,-12.84 -63.8,-12.84 -10.27,0 -22.735,3.301 -37.403,9.899 -14.676,6.609 -31.297,16.98 -49.875,31.16 V 538.281 c 0,-10.761 -3.672,-19.691 -11,-26.781 -7.336,-7.09 -16.133,-10.621 -26.402,-10.621 -10.27,0 -18.957,3.531 -26.039,10.621 -7.09,7.09 -10.633,16.02 -10.633,26.781 v 268.418 c 0.48,21.012 5.008,41.313 13.566,60.879 8.551,19.543 20.172,36.91 34.84,52.07 14.668,15.153 31.653,27.25 50.973,36.313 19.305,9.039 39.965,13.559 61.973,13.559"
         inkscape:connector-curvature="0" /><path
         id="path18"
         style="fill:#a81c22;fill-opacity:1;fill-rule:nonzero;stroke:none"
         d="m 814.672,856.582 c 9.281,-0.5 17.601,-4.402 24.941,-11.742 7.325,-7.328 10.996,-15.891 10.996,-25.668 V 678.359 c 0,-14.668 2.809,-28.371 8.434,-41.07 5.625,-12.719 13.203,-23.828 22.738,-33.359 9.535,-9.551 20.778,-17.129 33.742,-22.75 12.938,-5.621 26.512,-8.43 40.7,-8.43 13.675,0 26.882,2.559 39.601,7.711 12.716,5.129 23.956,12.09 33.746,20.898 9.76,8.801 17.47,19.422 23.1,31.891 5.61,12.469 8.43,26.039 8.43,40.711 v 145.937 c 0,6.364 1.47,12.231 4.4,17.614 2.44,2.429 4.64,5.129 6.59,8.058 8.32,7.34 16.63,11.012 24.94,11.012 9.29,0 18.09,-3.672 26.4,-11.012 3.91,-3.91 6.6,-7.82 8.08,-11.73 1.46,-3.918 2.44,-8.07 2.93,-12.469 V 678.359 c 0,-24.449 -4.66,-47.429 -13.94,-68.937 -9.29,-21.524 -21.99,-40.34 -38.13,-56.473 -16.14,-16.129 -35.09,-28.859 -56.84,-38.148 -21.77,-9.289 -45.104,-13.922 -70.046,-13.922 -23.468,-0.981 -45.953,3.051 -67.464,12.101 -21.528,9.04 -40.344,21.391 -56.473,37.04 -16.137,15.628 -29.102,34.089 -38.879,55.359 -9.777,21.269 -14.656,43.641 -14.656,67.109 v 147.41 c 0,9.793 3.531,18.223 10.633,25.313 7.082,7.078 15.753,10.871 26.027,11.371"
         inkscape:connector-curvature="0" /><path
         id="path20"
         style="fill:#a81c22;fill-opacity:1;fill-rule:nonzero;stroke:none"
         d="m 1338.88,969.52 c 11.24,0 20.53,-3.059 27.86,-9.168 7.33,-6.122 11.49,-15.043 12.47,-26.77 -0.5,-9.293 -4.15,-17.121 -11,-23.461 -6.85,-6.371 -15.41,-10.031 -25.67,-11.012 -16.13,-0.488 -28.73,-6.109 -37.77,-16.859 -9.05,-10.77 -13.56,-23.238 -13.56,-37.41 V 722.359 c 13.67,-0.968 25.29,-5.129 34.83,-12.468 9.54,-7.332 14.3,-15.891 14.3,-25.661 0,-10.269 -5.62,-19.07 -16.87,-26.398 -11.25,-7.344 -24.2,-11.742 -38.87,-13.211 V 519.949 c 0,-27.379 -7.46,-51.828 -22.37,-73.347 -14.92,-21.5 -36.3,-36.411 -64.16,-44.731 -7.34,-2.93 -14.68,-4.41 -22.01,-4.41 -11.25,0 -21.4,3.059 -30.44,9.168 -9.05,6.121 -13.81,15.281 -14.3,27.5 0,9.801 3.42,17.973 10.27,24.57 6.84,6.61 15.14,10.172 24.93,10.641 15.15,0.48 27.75,6.109 37.77,16.871 10.02,10.75 15.04,22.969 15.04,36.668 v 125.41 c -14.67,0 -26.17,3.422 -34.47,10.27 -8.32,6.839 -12.97,15.871 -13.93,27.121 0.47,9.289 5.13,17.25 13.93,23.851 8.8,6.59 20.28,10.867 34.47,12.828 V 845.57 c 0,16.141 3.04,31.66 9.16,46.578 6.11,14.911 14.55,28.102 25.31,39.614 10.74,11.468 23.47,20.636 38.13,27.488 14.67,6.84 30.31,10.27 46.95,10.27"
         inkscape:connector-curvature="0" /><path
         id="path22"
         style="fill:#a81c22;fill-opacity:1;fill-rule:nonzero;stroke:none"
         d="m 1573.55,969.52 c 11.24,0 20.54,-3.059 27.87,-9.168 7.33,-6.122 11.49,-15.043 12.47,-26.77 -0.5,-9.293 -4.15,-17.121 -11,-23.461 -6.85,-6.371 -15.41,-10.031 -25.68,-11.012 -16.13,-0.488 -28.72,-6.109 -37.77,-16.859 -9.05,-10.77 -13.55,-23.238 -13.55,-37.41 V 722.359 c 13.67,-0.968 25.29,-5.129 34.82,-12.468 9.54,-7.332 14.31,-15.891 14.31,-25.661 0,-10.269 -5.63,-19.07 -16.87,-26.398 -11.25,-7.344 -24.2,-11.742 -38.87,-13.211 V 519.949 c 0,-27.379 -7.46,-51.828 -22.38,-73.347 -14.91,-21.5 -36.29,-36.411 -64.16,-44.731 -7.34,-2.93 -14.67,-4.41 -22.01,-4.41 -11.25,0 -21.39,3.059 -30.43,9.168 -9.05,6.121 -13.82,15.281 -14.3,27.5 0,9.801 3.41,17.973 10.26,24.57 6.85,6.61 15.16,10.172 24.94,10.641 15.15,0.48 27.75,6.109 37.76,16.871 10.02,10.75 15.04,22.969 15.04,36.668 v 125.41 c -14.66,0 -26.16,3.422 -34.46,10.27 -8.32,6.839 -12.97,15.871 -13.93,27.121 0.46,9.289 5.12,17.25 13.93,23.851 8.8,6.59 20.27,10.867 34.46,12.828 V 845.57 c 0,16.141 3.05,31.66 9.16,46.578 6.12,14.911 14.56,28.102 25.32,39.614 10.74,11.468 23.46,20.636 38.13,27.488 14.67,6.84 30.31,10.27 46.94,10.27"
         inkscape:connector-curvature="0" /><path
         id="path24"
         style="fill:#a81c22;fill-opacity:1;fill-rule:nonzero;stroke:none"
         d="m 1904.27,717.23 c -11.73,19.551 -26.77,35.559 -45.1,48.032 -18.34,12.468 -38.51,18.707 -60.51,18.707 -22.99,0 -43.63,-6.36 -61.97,-19.071 -18.33,-12.718 -32.63,-28.359 -42.9,-46.929 -0.98,-1 -1.47,-1.969 -1.47,-2.938 h 212.69 c -0.5,0 -0.74,0.239 -0.74,0.731 z m -105.61,140.071 c 23.47,0 46.09,-5.012 67.84,-15.031 21.75,-10.02 40.82,-23.231 57.21,-39.59 16.37,-16.399 29.58,-35.469 39.6,-57.211 10.02,-21.758 15.03,-44.379 15.03,-67.84 0,-9.797 -3.65,-18.469 -11,-26.039 -7.32,-7.59 -16.62,-11.121 -27.87,-10.641 h -246.42 c 14.19,-25.418 30.68,-43.519 49.51,-54.269 18.82,-10.75 37.51,-16.129 56.1,-16.129 10.28,0 19.07,1.211 26.4,3.668 7.34,2.441 13.69,4.64 19.07,6.59 6.35,4.402 13.45,6.601 21.27,6.601 10.74,-0.969 19.44,-5.25 26.04,-12.832 6.6,-7.59 9.9,-15.758 9.9,-24.558 0,-3.93 -0.62,-8.079 -1.83,-12.469 -1.23,-4.41 -3.8,-8.321 -7.7,-11.742 l 0.73,1.472 c -12.73,-10.269 -27.14,-17.601 -43.27,-22 -16.14,-4.402 -33.25,-6.84 -51.33,-7.34 -23.98,-0.98 -46.84,3.297 -68.58,12.84 -21.76,9.528 -40.83,22.61 -57.21,39.239 -16.38,16.609 -29.34,35.941 -38.87,57.929 -9.54,22 -14.3,45.211 -14.3,69.68 0,23.461 4.76,46.082 14.3,67.84 9.53,21.742 22.62,40.812 39.24,57.211 16.62,16.359 35.68,29.57 57.21,39.59 21.5,10.019 44.48,15.031 68.93,15.031"
         inkscape:connector-curvature="0" /><path
         id="path26"
         style="fill:#244a92;fill-opacity:1;fill-rule:nonzero;stroke:none"
         d="m 1817.22,1466.92 c -36.23,0 -65.61,29.37 -65.61,65.6 0,36.23 29.38,65.6 65.61,65.6 36.23,0 65.6,-29.37 65.6,-65.6 0,-36.23 -29.37,-65.6 -65.6,-65.6 z m 0,-142.14 c -26.67,0 -48.29,21.62 -48.29,48.29 0,26.67 21.62,48.29 48.29,48.29 26.67,0 48.29,-21.62 48.29,-48.29 0,-26.67 -21.62,-48.29 -48.29,-48.29 z m -6.38,-120.27 c -20.13,0 -36.45,16.31 -36.45,36.44 0,20.13 16.32,36.45 36.45,36.45 20.13,0 36.45,-16.32 36.45,-36.45 0,-20.13 -16.32,-36.44 -36.45,-36.44 z m -103.08,-66.74 c 0,-27.19 -6.32,-43.71 -21.72,-52.27 -4.6,-2.57 -10.03,-4.43 -16.35,-5.64 -3.17,-0.6 -6.55,-1.05 -10.16,-1.34 -3.61,-0.3 -7.46,-0.43 -11.54,-0.43 -119.18,-0.01 -238.36,0 -357.55,0.01 -119.18,0 -238.36,-0.01 -357.542,0.01 -1.414,0 -2.832,-0.01 -4.246,0 -4.25,0.02 -8.507,0.13 -12.699,0.66 -3.199,0.4 -6.25,1.02 -9.152,1.87 -2.891,0.85 -5.629,1.92 -8.188,3.19 -10.258,5.06 -17.761,13.38 -21.633,24.08 -1.925,5.35 -2.949,11.31 -2.957,17.74 -0.054,94.73 -0.082,189.46 -0.078,284.18 0.004,94.73 0.039,189.46 0.125,284.19 0.028,28.21 19.715,46.74 48.274,46.74 123.046,-0.01 246.086,-0.01 369.126,-0.01 122.53,0 245.05,0 367.58,0 26.39,0.01 44.98,-16.23 48.21,-42.37 0.56,-4.57 0.51,-9.24 0.51,-13.86 0.01,-182.25 0.01,-364.5 -0.01,-546.75 z m 215.55,585.73 c -3.11,42.11 -38.18,74.65 -80.4,74.65 -99.21,0.01 -273.62,0.05 -373.42,0.31 -5.15,0.01 -12.89,3.15 -14.71,7.04 -1.88,4 0.32,12.16 3.63,16.03 135.67,159.02 271.71,317.73 407.5,476.66 6.36,7.45 11.75,11.26 22.61,9.25 18.25,-3.38 33.59,6.69 40.3,23.31 6.35,15.71 1.41,33.5 -12.23,44.04 -13.37,10.34 -33.56,10.33 -47.11,-0.02 -13.83,-10.56 -19.04,-28.73 -11.22,-45.31 3.68,-7.78 1.94,-11.97 -3.22,-17.7 -120.19,-133.25 -240.18,-266.66 -360.22,-400.04 -21.28,-23.65 -42.61,-47.25 -64.35,-71.36 -25.18,20.46 -53.14,23.74 -82.79,16.19 -2.16,5.35 -3.95,9.54 -5.55,13.78 -35.91,95.36 -65.84,176.68 -104.51,279.78 -1.67,4.43 -2.66,11.29 -0.43,14.68 19.11,28.86 15.5,47.52 -13.66,65.31 h -27.33 c -2.42,-1.89 -4.81,-3.81 -7.25,-5.67 -13.14,-10 -18.93,-22.98 -15.41,-39.39 3.49,-16.29 14.8,-28.14 31.72,-29.28 11.19,-0.74 14.12,-6.39 17.14,-15.05 69.15,-198.42 18.58,-81.42 88.26,-279.66 5.15,-14.62 8.63,-27.08 -4.62,-38.91 -2.87,-2.56 -5.03,-6.84 -5.81,-10.66 -2.44,-12.05 -10.13,-13.53 -20.9,-13.51 -96.71,0.21 -285.369,0.22 -383.322,0.21 -41.875,0 -76.754,-32.07 -80.324,-73.8 -0.973,-11.4 -7.286,-522.7 0,-585.78 5.562,-48.12 57.011,-84.44 105.461,-84.44 h 897.785 c 48.6,0 89.45,36.55 94.8,84.86 10.35,93.36 25.24,237.24 25.1,290.55 -0.21,72.51 -9.21,208.68 -15.52,293.93"
         inkscape:connector-curvature="0" /><path
         id="path28"
         style="fill:#244a92;fill-opacity:1;fill-rule:nonzero;stroke:none"
         d="m 1067.72,1477.49 c 63.03,44.65 86.08,92.19 186.55,87.15 84.44,-4.24 160.73,-35.43 182.93,-45.28 -0.35,-0.15 -0.72,-0.26 -1.06,-0.41 0.37,0.14 0.74,0.25 1.13,0.38 11.84,4.35 23.98,7.77 35.88,12.11 l 2.77,1 -2.94,0.47 c -18.34,2.89 -37.06,2.63 -55.51,0.84 -17.51,11.1 -36.21,20.32 -55.54,27.88 l 21.63,16.62 9,6.92 -11.33,-2.12 c -14.3,-2.66 -28.07,-7.36 -41.36,-12.87 -15.61,4.64 -31.57,7.89 -47.58,10.44 6.57,7.01 13.2,14.07 19.29,21.76 l 8.19,10.35 -12.52,-4.23 c -16.45,-5.56 -31.11,-14.56 -45.21,-23.6 -18.21,1.14 -36.5,0.72 -54.65,-1.06 l 12,28.87 6.89,16.58 -13.75,-11.59 c -13.58,-11.44 -25.04,-24.93 -35.55,-38.82 -15.99,-3.87 -31.56,-9.17 -46.77,-15.22 l 0.18,31.75 0.11,18.55 -8.32,-16.49 c -7.33,-14.56 -12.65,-30 -16.55,-45.68 -17.37,-9.35 -33.59,-20.55 -48.99,-32.63 -6.94,7.14 -13.39,14.8 -19.29,22.91 l -14.37,19.77 7.51,-23.25 c 3.52,-10.9 7.84,-21.53 12.65,-31.92 l -4.99,-4.72 c -12.1,13.17 -22.61,27.97 -33.91,42.33 l -8.232,10.48 2.937,-12.94 c 2.585,-11.39 7.145,-22.03 11.905,-32.3 3.95,-8.53 8.01,-16.93 11.37,-25.53 -6.27,3.3 -11.79,8.18 -16.83,13.58 -6.413,6.8 -12.456,14.36 -20.214,20.3 l -3.551,2.73 1.004,-4.32 c 4.375,-18.86 14.828,-35.35 26.541,-50.11 -4.29,-4.32 -9.205,-8.1 -13.51,-12.57 -2.222,-2.31 -4.277,-4.82 -5.832,-7.64 -0.711,-1.29 -1.269,-2.65 -1.723,-4.05 -0.542,-1.65 -0.925,-3.34 -1.062,-5.06 0.187,1.75 0.652,3.43 1.27,5.04 7.07,-1.03 29.347,0.12 79.407,35.6"
         inkscape:connector-curvature="0" /><path
         id="path30"
         style="fill:#244a92;fill-opacity:1;fill-rule:nonzero;stroke:none"
         d="m 1185.51,1510.05 c 6.18,6.69 11.56,14.1 16.22,21.89 l 3.17,5.33 -5.59,-2.21 c -7.42,-2.93 -14.56,-6.5 -20.36,-9.58 5.86,1.4 11.02,2.58 15.89,3.9 l -10.39,-14.87 c -1.64,3.4 -3.46,6.88 -5.5,10.97 0.91,-4.39 2.03,-9.67 3.62,-14.96 l 0.83,-2.76 2.11,2.29"
         inkscape:connector-curvature="0" /><path
         id="path32"
         style="fill:#244a92;fill-opacity:1;fill-rule:nonzero;stroke:none"
         d="m 1299.5,1495.7 c -1.1,-2.85 -1.38,-5.72 -2.19,-8.52 1.44,2.55 2.2,5.46 3.6,7.85 0.69,1.19 1.55,2.26 2.57,2.78 0.99,0.54 2.11,0.57 3.29,0.29 l 0.03,-0.01 0.19,-0.02 c 9.01,-0.75 17.97,-2 26.95,-3.26 -11.96,-3.15 -24.25,-5.32 -36.63,-7.63 16.16,-0.36 32.49,1.41 48.14,6.27 l 9.63,2.99 -10.01,1.4 c -12.5,1.74 -25.21,3.37 -38,2.99 l 0.21,-0.02 c -1.65,0.23 -3.61,-0.03 -5.05,-1.12 -1.43,-1.1 -2.18,-2.59 -2.73,-3.99"
         inkscape:connector-curvature="0" /><path
         id="path34"
         style="fill:#244a92;fill-opacity:1;fill-rule:nonzero;stroke:none"
         d="m 1140.77,1501.26 -5.51,-2.29 c -7.41,-3.08 -14.54,-6.8 -20.33,-10.01 5.91,1.55 11.12,2.83 16.05,4.27 l -10.01,-15.1 c -1.8,3.36 -3.81,6.79 -6.04,10.83 1.11,-4.34 2.47,-9.59 4.32,-14.84 l 0.93,-2.66 2.01,2.29 c 5.98,6.8 11.17,14.28 15.59,22.17 l 2.99,5.34"
         inkscape:connector-curvature="0" /><path
         id="path36"
         style="fill:#244a92;fill-opacity:1;fill-rule:nonzero;stroke:none"
         d="m 1257.5,1422.35 c -2.11,17.23 3.93,34.36 1.89,51.56 -4.11,17.13 -25.43,19.5 -39.85,16.02 -15.9,-2.75 -26.39,-15.94 -36.1,-27.58 11.41,11.01 24.65,22.9 41.52,23.09 10.37,0.08 23.35,-4.3 26.98,-14.94 1.71,-12.49 -2.67,-24.76 -3.56,-37.18 -1.85,-18.72 7.45,-36.73 5.08,-55.46 -1.26,-9.97 -11.49,-15.71 -20.87,-15.34 -18.53,-1.11 -33.62,11.38 -46.85,22.65 10.41,-10.2 21.24,-21.8 36.29,-24.51 12.08,-2.77 27.73,-0.66 34.06,11.42 8.3,15.61 2.34,33.7 1.41,50.27"
         inkscape:connector-curvature="0" /><path
         id="path38"
         style="fill:#244a92;fill-opacity:1;fill-rule:nonzero;stroke:none"
         d="m 1432.37,1454.28 9.5,0.94 -8.94,3.42 c -6.58,2.52 -13.3,4.6 -20.08,6.34 -6.76,1.8 -13.58,3.24 -20.4,4.66 l -0.86,0.18 -0.39,-0.6 c -2.76,-4.21 -5.25,-8.39 -7.55,-11.88 3.15,3.7 6.11,6.78 8.84,9.81 6.41,-2.14 12.82,-4.16 19.23,-6.13 3.24,-1.04 6.42,-2.18 9.64,-3.25 -12.49,-1.01 -25.02,-1.3 -37.71,-0.43 15.75,-4.44 32.5,-4.67 48.72,-3.06"
         inkscape:connector-curvature="0" /><path
         id="path40"
         style="fill:#244a92;fill-opacity:1;fill-rule:nonzero;stroke:none"
         d="m 1173.31,1420.63 -5.48,2.58 c -3.42,1.61 -6.86,3.15 -10.34,4.61 -3.48,1.47 -6.98,2.89 -10.53,4.18 l -1.77,0.65 -0.55,-1.58 c -1.93,-5.56 -3.07,-11.2 -4.28,-15.46 2.37,4.86 4.76,8.69 6.67,12.45 2.86,-1.49 5.74,-2.92 8.64,-4.29 1.61,-0.75 3.25,-1.44 4.87,-2.16 -6.66,-1.99 -13.38,-3.87 -20.18,-6 9.18,-0.24 18.31,1.08 27.17,3.47 l 5.78,1.55"
         inkscape:connector-curvature="0" /><path
         id="path42"
         style="fill:#244a92;fill-opacity:1;fill-rule:nonzero;stroke:none"
         d="m 1363.37,1426.09 -9.63,1.35 c -11.91,1.67 -24.01,3.21 -36.2,3.06 l 0.28,-0.04 c -1.78,0.33 -3.89,0.18 -5.56,-0.86 -1.68,-1.01 -2.63,-2.62 -3.34,-4.1 -1.41,-3.06 -1.91,-6.19 -2.89,-9.23 1.67,2.74 2.66,5.88 4.37,8.39 0.84,1.26 1.88,2.32 3.02,2.84 1.15,0.51 2.42,0.46 3.72,0.08 l 0.06,-0.02 0.22,-0.02 c 8.56,-0.8 17.09,-1.99 25.64,-3.18 -12.06,-3.46 -24.46,-5.9 -37.03,-8.09 16.19,-0.56 32.57,1.67 48.13,6.79 l 9.21,3.03"
         inkscape:connector-curvature="0" /><path
         id="path44"
         style="fill:#244a92;fill-opacity:1;fill-rule:nonzero;stroke:none"
         d="m 1457.06,1431.51 -0.39,-0.71 c -2.57,-4.77 -4.76,-9.53 -6.88,-13.49 2.94,4.28 5.82,7.87 8.39,11.4 9.69,-3.06 19.45,-5.68 29.12,-8.4 -12.38,-1.56 -24.88,-2.41 -37.51,-3 16.05,-2.54 32.55,-2.35 48.71,0.03 l 9.64,1.42 -9.31,2.96 c -13.43,4.26 -27.15,6.97 -40.81,9.61 l -0.96,0.18"
         inkscape:connector-curvature="0" /><path
         id="path46"
         style="fill:#244a92;fill-opacity:1;fill-rule:nonzero;stroke:none"
         d="m 1432.51,1376.72 10.56,1.7 -10.3,2.68 c -13.58,3.54 -27.28,6.76 -41.08,9.41 l -0.99,0.19 -0.37,-0.77 c -2.27,-4.81 -4.21,-9.57 -6.09,-13.58 2.68,4.31 5.3,7.96 7.66,11.54 9.65,-3.06 19.37,-5.78 29.13,-8.35 -12.12,-1.59 -24.4,-2.41 -36.79,-3.19 15.94,-2.28 32.25,-2.2 48.27,0.37"
         inkscape:connector-curvature="0" /><path
         id="path48"
         style="fill:#244a92;fill-opacity:1;fill-rule:nonzero;stroke:none"
         d="m 1164.96,1333.81 -0.94,6.49 c -1.1,7.58 -2.57,15.11 -4.33,22.57 l -0.42,1.76 -1.56,-0.39 c -5.43,-1.36 -10.51,-3.36 -14.53,-4.61 5.12,0.61 9.36,0.7 13.33,1.09 0.55,-4.96 1.25,-9.89 2.06,-14.79 -5.04,4.58 -10.08,9.2 -15.39,13.7 4.67,-7.89 10.62,-14.88 17.13,-21.26 l 4.65,-4.56"
         inkscape:connector-curvature="0" /><path
         id="path50"
         style="fill:#244a92;fill-opacity:1;fill-rule:nonzero;stroke:none"
         d="m 1350.57,1342.05 -8.61,4.42 c -12.67,6.52 -25.93,11.44 -39.16,16.24 l -0.96,0.36 -0.48,-0.72 c -2.95,-4.42 -5.54,-8.86 -7.98,-12.55 3.28,3.89 6.39,7.1 9.23,10.3 9.21,-4.61 18.53,-8.81 27.75,-13.13 -12.27,0.5 -24.56,1.69 -36.98,2.83 15.36,-4.67 31.38,-7.31 47.54,-7.58 l 9.65,-0.17"
         inkscape:connector-curvature="0" /><path
         id="path52"
         style="fill:#244a92;fill-opacity:1;fill-rule:nonzero;stroke:none"
         d="m 1122,1327.7 -0.8,0.2 c -5.34,1.33 -11.22,-0.22 -14.91,-3.75 4.39,1.8 8.89,1.98 12.94,0.68 1.07,-4.53 1.83,-9.17 2.58,-13.86 -5.09,4.38 -10.14,8.86 -15.52,13.18 4.72,-7.66 10.59,-14.5 17.27,-20.55 l 4.53,-4.1 -0.89,6.15 c -1,6.99 -2.14,14.23 -4.83,21.11 l -0.37,0.94"
         inkscape:connector-curvature="0" /><path
         id="path54"
         style="fill:#244a92;fill-opacity:1;fill-rule:nonzero;stroke:none"
         d="m 1225.86,1328.67 -0.49,1.88 -1.65,-0.54 c -5.53,-1.79 -10.65,-4.27 -14.71,-5.86 5.24,1.03 9.6,1.44 13.67,2.15 0.67,-4.87 1.51,-9.71 2.46,-14.52 -5.26,4.17 -10.53,8.38 -16.13,12.37 5.15,-7.29 11.32,-13.73 18.07,-19.53 l 4.62,-3.99 -1.05,6.08 c -1.27,7.38 -2.9,14.71 -4.79,21.96"
         inkscape:connector-curvature="0" /><path
         id="path56"
         style="fill:#244a92;fill-opacity:1;fill-rule:nonzero;stroke:none"
         d="m 1284.34,1307.78 -0.56,-0.39 c -4.34,-3.04 -8.36,-6.21 -11.97,-8.74 4.51,2.45 8.64,4.35 12.5,6.31 7.98,-5.67 16.12,-11.05 24.34,-16.32 -12.56,2.22 -24.93,4.96 -36.84,10.01 6.86,-4.74 14.65,-8.19 22.64,-10.69 8,-2.55 16.22,-4.2 24.39,-5.63 l 11.28,-1.97 -9.64,6.08 c -11.59,7.31 -23.38,14.37 -35.42,20.95 l -0.72,0.39"
         inkscape:connector-curvature="0" /><path
         id="path58"
         style="fill:#244a92;fill-opacity:1;fill-rule:nonzero;stroke:none"
         d="m 1182.76,1266.91 -0.99,6.63 c -1.14,7.67 -2.67,15.29 -4.49,22.81 l -0.42,1.76 -1.57,-0.42 c -5.37,-1.44 -10.38,-3.49 -14.35,-4.79 5.06,0.68 9.26,0.83 13.2,1.28 0.57,-5.02 1.3,-9.99 2.15,-14.94 -5.01,4.6 -10.04,9.21 -15.35,13.66 4.72,-7.86 10.66,-14.84 17.11,-21.28 l 4.71,-4.71"
         inkscape:connector-curvature="0" /><path
         id="path60"
         style="fill:#244a92;fill-opacity:1;fill-rule:nonzero;stroke:none"
         d="m 1255.17,1248.15 -2.38,5.74 c -2.97,7.17 -6.31,14.22 -9.91,21.11 l -0.85,1.64 -1.44,-0.83 c -4.87,-2.79 -9.23,-6.09 -12.79,-8.43 4.76,1.98 8.82,3.24 12.56,4.72 1.81,-4.83 3.77,-9.58 5.84,-14.28 -6.1,3.11 -12.16,6.34 -18.4,9.56 6.33,-6.63 13.87,-11.98 21.95,-16.32 l 5.42,-2.91"
         inkscape:connector-curvature="0" /><path
         id="path62"
         style="fill:#244a92;fill-opacity:1;fill-rule:nonzero;stroke:none"
         d="m 1477.92,1517.5 c 5.4,3.1 10.31,6.93 15.07,10.82 8.8,7.34 16.85,15.24 25.62,21.63 2.83,-0.99 5.24,-2.64 6.94,-5.41 2.02,-3.26 3.3,-7.41 4.18,-11.76 0.9,-4.39 1.28,-8.88 1.52,-13.58 0.34,-4.67 0.55,-9.33 0.52,-13.97 0.01,-9.27 -0.78,-18.5 -3.17,-27.41 -1.26,-4.37 -2.72,-8.97 -4.89,-12.78 -1.22,-1.86 -2.65,-3.71 -4.47,-4.91 -1.76,-1.29 -4.26,-1.51 -6.18,0.14 0.74,-0.92 1.76,-1.74 3.05,-2.03 1.29,-0.3 2.67,-0.08 3.87,0.42 2.42,1 4.39,2.69 6.12,4.53 3.25,4.04 5.47,8.37 7.41,12.95 3.83,9.16 5.55,19.07 6.2,28.82 0.47,9.82 0.66,19.41 -1.13,29.49 -0.88,4.99 -2.3,10.19 -5.45,15 -1.59,2.38 -3.61,4.62 -6.11,6.37 -2.53,1.71 -5.4,2.8 -8.28,3.39 l -1.89,0.39 -1.52,-1.15 c -10.12,-7.73 -18.19,-17.02 -26.51,-25.64 -8.25,-8.68 -17.02,-16.77 -27.99,-22.27 5.96,1.35 11.77,3.78 17.09,6.96"
         inkscape:connector-curvature="0" /><path
         id="path64"
         style="fill:#244a92;fill-opacity:1;fill-rule:nonzero;stroke:none"
         d="m 1576.95,1346.03 c -3.18,3.2 -7.49,5.52 -11.79,6.34 -3.84,0.81 -7.64,1.49 -11.45,2.13 -15.16,2.71 -30.26,5.2 -44.17,12.17 6.23,-4.6 13.29,-8.18 20.62,-10.92 7.3,-2.8 14.85,-4.85 22.31,-6.84 l 11.12,-2.98 c 3.24,-0.86 5.87,-2.61 7.99,-4.98 4.2,-4.79 5.77,-11.92 4.05,-17.92 l -0.11,-0.38 -0.03,-0.62 c -0.25,-5.8 -3.11,-11.17 -7.36,-16.17 -4.12,-5.07 -9.67,-9.6 -14.18,-15.83 -4.35,-5.93 -7.79,-11.91 -12.16,-16.42 -4.33,-4.5 -9.5,-7.36 -15.66,-7.82 -5.97,-0.47 -11.93,1.28 -14.08,6.24 -2.79,6.12 -5.35,12.74 -8.06,19.2 -5.26,12.97 -11.41,26.31 -21.18,36.59 7.76,-11.82 12,-25.06 16.13,-38.41 2.06,-6.72 4.07,-13.38 6.7,-20.21 1.46,-4.04 4.99,-7.57 8.89,-9.36 3.94,-1.78 8.1,-2.32 12.1,-2.16 7.96,0.19 16.14,4.07 21.46,9.76 5.47,5.56 9.11,11.86 13.15,17.14 3.77,5.15 9.03,9.78 13.77,15.61 2.35,2.9 4.62,6.07 6.28,9.77 1.69,3.65 2.64,7.82 2.64,11.94 l -0.14,-1 c 2.07,8.94 -0.35,18.66 -6.84,25.13"
         inkscape:connector-curvature="0" /><path
         id="path66"
         style="fill:#a81c22;fill-opacity:1;fill-rule:nonzero;stroke:none"
         d="m 1049.96,1424.36 c 0,-13.42 10.88,-24.31 24.31,-24.31 13.43,0 24.31,10.89 24.31,24.31 0,13.43 -10.88,24.31 -24.31,24.31 -13.43,0 -24.31,-10.88 -24.31,-24.31"
         inkscape:connector-curvature="0" /><path
         id="path68"
         style="fill:#244a92;fill-opacity:1;fill-rule:nonzero;stroke:none"
         d="m 1631.33,1352.17 c -7.83,0.99 -19.29,7.35 -27.14,9.16 -7.82,1.8 -15.65,4.35 -22.92,8.12 -7.27,3.59 -13.89,8.33 -20.44,12.15 -6.56,3.83 -13.44,6.67 -20.47,6.53 h -0.15 l -0.21,0.02 c -6.89,0.6 -13.9,-1.35 -20.08,-4.93 -6.24,-3.51 -11.44,-8.77 -16.44,-14.41 -9.89,-11.29 -17.64,-24.51 -25.69,-37.77 -8.08,-13.28 -16.73,-26.38 -26.66,-38.6 -8.51,-10.47 -17.95,-20.15 -27.87,-29.27 6.98,-2.79 13.97,-5.68 20.81,-9.08 l 15.06,-7.49 -16.83,-0.52 c -12.53,-0.39 -25.02,0.31 -37.4,1.49 -15.69,-11.03 -32.55,-20.42 -50.23,-27.96 7.21,-3.98 14.4,-8.07 21.33,-12.83 l 13.21,-9.08 -16.04,0.82 c -17.4,0.88 -33.23,6.77 -48.85,9.76 -21.16,-3.72 -42.65,-7.92 -64.67,-9.02 4.41,-6.35 8.76,-12.81 12.59,-19.71 l 7.36,-13.26 -13.18,7.46 c -12.29,6.95 -23.42,15.54 -33.91,24.59 -24.34,0.95 -48.62,4.44 -72.22,10.76 l 10.47,-25.12 5.87,-14.08 -11.94,9.59 c -10.23,8.21 -19.12,17.85 -26.89,28.21 l -5.52,7.6 c -1.71,2.12 -3.85,3.97 -6.29,5.6 -4.85,3.28 -10.74,5.74 -16.44,9.03 -11.31,6.17 -22.01,13.77 -31.71,22.26 -8.28,7.22 -15.83,15.19 -22.95,23.49 l -7.05,-28.38 -2.55,-10.27 -2.73,10.29 c -4.13,15.56 -4.89,31.75 -4.63,47.36 -0.09,7.18 -3.78,14.04 -7.34,21 -3.59,7.05 -6.9,14.41 -9.18,22.03 -2.39,7.54 -4.38,15.1 -7.21,22.28 -2.22,7.46 -8.21,12.09 -14.704,16.57 -3.191,2.29 -6.473,4.68 -9.254,7.72 -2.777,3.1 -4.64,6.89 -5.804,10.77 -2.297,7.92 -1.454,15.98 -1.633,23.71 l -0.051,2.06 1.57,-1.29 23.946,-21.11 -13.29,2 c 0,0 33.13,-20.17 37.81,-42.85 4.69,-22.7 25.57,-118.13 166.75,-118.13 141.16,0 222.91,77.43 267.57,129.29 44.66,51.86 103.71,50.06 118.48,28.81 14.76,-21.25 27.37,-24.49 30.97,-8.64 3.61,15.84 6.84,75.98 -28.81,57.97 -33.75,-17.04 -76.8,-22.07 -94.15,18.97 -1.58,1.66 -3.16,3.31 -4.71,4.96 1.49,-1.51 3.02,-3.01 4.55,-4.51 8.21,-8.13 16.91,-15.96 27.6,-20.29 3.11,-1.32 6.4,-2.13 9.71,-2.68 3.37,-0.54 6.65,-0.78 9.9,0 6.53,1.41 12.31,5.21 18.46,8.28 12.15,6.49 25.33,11.05 38.75,14.18 13.43,3.15 27.13,4.93 40.83,6.08 l 1.68,0.14 c 0,0 -10.85,-24.4 -4.73,-44.21 6.13,-19.81 -0.71,-32.77 -2.51,-40.7 -1.8,-7.92 -5.72,-30.06 -1.8,-34.92"
         inkscape:connector-curvature="0" /><path
         id="path70"
         style="fill:#244a92;fill-opacity:1;fill-rule:nonzero;stroke:none"
         d="m 990.117,1443.46 c 0,0 -7.289,-5 -1.347,-16.21 5.941,-11.21 17.15,-18.37 17.15,-18.37 0,0 -9.455,30.79 2.02,36.06 11.48,5.27 3.79,9.86 2.84,9.72 -0.95,-0.13 -20.663,-11.2 -20.663,-11.2"
         inkscape:connector-curvature="0" /><path
         id="path72"
         style="fill:#244a92;fill-opacity:1;fill-rule:nonzero;stroke:none"
         d="m 1460.83,1510.54 c 0,0 24.1,-1.9 43.37,12.15 19.27,14.04 21.43,-5.41 19.45,-24.85 -1.98,-19.45 -3,-36.24 -10.59,-37.57 0,0 6.63,-7.63 14.37,7.13 7.75,14.77 15.48,62.67 9.01,71.85 -6.49,9.18 -18.73,18.73 -19.1,17.28 -0.36,-1.44 -14.04,-12.96 -15.12,-14.58 -1.08,-1.62 -29.67,-28.8 -41.39,-31.41"
         inkscape:connector-curvature="0" /><path
         id="path74"
         style="fill:#244a92;fill-opacity:1;fill-rule:nonzero;stroke:none"
         d="m 1509.54,1366.67 c 0,0 10.87,-25.67 36.26,-29.45 25.38,-3.78 18,-32.59 0.54,-42.49 -17.47,-9.92 -26.29,-9.73 -31.15,0 -4.87,9.71 -31.33,32.41 -31.33,32.41 0,0 10.08,-14.95 16.02,-34.03 5.94,-19.1 13.51,-40.35 36.56,-27.38 23.04,12.97 21.96,29.89 29.53,34.4 7.56,4.5 15.48,9.71 14.76,21.6 -0.72,11.88 -4.86,23.95 -12.97,25.93"
         inkscape:connector-curvature="0" /><path
         id="path76"
         style="fill:#244a92;fill-opacity:1;fill-rule:nonzero;stroke:none"
         d="m 1184.57,1463.07 c 0,0 35.63,25.93 46.56,-0.32 10.94,-26.25 -9.37,-30.93 -0.93,-47.81 8.43,-16.87 15.93,-43.75 -2.19,-44.69 -18.13,-0.93 -38.75,11.57 -38.75,11.57 0,0 36.25,-42.5 66.56,-7.19 1.15,1.35 -1.25,17.81 -0.62,31.56 0.62,13.75 -2.5,48.75 -0.32,58.13 2.19,9.37 -7.5,19.37 -11.56,21.25 -4.06,1.87 -22.81,14.06 -58.75,-22.5"
         inkscape:connector-curvature="0" /><path
         id="path78"
         style="fill:none;stroke:#100f0d;stroke-width:5;stroke-linecap:butt;stroke-linejoin:miter;stroke-miterlimit:4;stroke-dasharray:none;stroke-opacity:1"
         d="M 270,360 H 0"
         inkscape:connector-curvature="0" /><path
         id="path80"
         style="fill:none;stroke:#100f0d;stroke-width:5;stroke-linecap:butt;stroke-linejoin:miter;stroke-miterlimit:4;stroke-dasharray:none;stroke-opacity:1"
         d="M 360,270 V 0"
         inkscape:connector-curvature="0" /><path
         id="path82"
         style="fill:none;stroke:#100f0d;stroke-width:5;stroke-linecap:butt;stroke-linejoin:miter;stroke-miterlimit:4;stroke-dasharray:none;stroke-opacity:1"
         d="M 270,2420 H 0"
         inkscape:connector-curvature="0" /><path
         id="path84"
         style="fill:none;stroke:#100f0d;stroke-width:5;stroke-linecap:butt;stroke-linejoin:miter;stroke-miterlimit:4;stroke-dasharray:none;stroke-opacity:1"
         d="m 360,2510 v 270"
         inkscape:connector-curvature="0" /><path
         id="path86"
         style="fill:none;stroke:#100f0d;stroke-width:5;stroke-linecap:butt;stroke-linejoin:miter;stroke-miterlimit:4;stroke-dasharray:none;stroke-opacity:1"
         d="m 2360,2420 h 270"
         inkscape:connector-curvature="0" /><path
         id="path88"
         style="fill:none;stroke:#100f0d;stroke-width:5;stroke-linecap:butt;stroke-linejoin:miter;stroke-miterlimit:4;stroke-dasharray:none;stroke-opacity:1"
         d="m 2270,2510 v 270"
         inkscape:connector-curvature="0" /><path
         id="path90"
         style="fill:none;stroke:#100f0d;stroke-width:5;stroke-linecap:butt;stroke-linejoin:miter;stroke-miterlimit:4;stroke-dasharray:none;stroke-opacity:1"
         d="m 2360,360 h 270"
         inkscape:connector-curvature="0" /><path
         id="path92"
         style="fill:none;stroke:#100f0d;stroke-width:5;stroke-linecap:butt;stroke-linejoin:miter;stroke-miterlimit:4;stroke-dasharray:none;stroke-opacity:1"
         d="M 2270,270 V 0"
         inkscape:connector-curvature="0" /></g></g></svg>